<svg xmlns="http://www.w3.org/2000/svg" xmlns:xlink="http://www.w3.org/1999/xlink" width="392" height="168.859" viewBox="0 0 392 168.859">
  <defs>
    <linearGradient id="linear-gradient" x1="0.5" x2="0.5" y2="1" gradientUnits="objectBoundingBox">
      <stop offset="0" stop-color="#fff"/>
      <stop offset="1" stop-color="#fff" stop-opacity="0"/>
    </linearGradient>
  </defs>
  <path id="Path_750" data-name="Path 750" d="M152.654,382.8,98.43,392l-48.21-7.99L0,386.849V375.987l21.1-31.663L0,348.061v-7.5l21.145-3.744L0,312.119V297.189l20.827-24.467L0,268.757v-7.514l19.948,3.8L0,236.492V221.366L21.1,189.7,0,193.439v-7.5L21.146,182.2,0,157.5V142.567L20.827,118.1,0,114.136v-7.514l19.948,3.8L0,81.87V66.639L21.1,34.976,0,38.712v-7.5l21.145-3.744L0,2.771V0H7.345L28.187,24.346,44.413,0H59.466L77.049,27.488,89.536,0h14.882l18.388,29.662L151.916,0h2.093l14.85,13.982v10.14L153.118,9.314l-23.6,24.049h39.343v7.381H129.2l23.392,23.41,15.9-16.713.367.349v9.973L159.978,67.1l8.881,1.3v7.46l-8.144-1.189,8.144,12.152v13.26L153.674,77.415,129.75,105.049h39.109v7.381h-41.54l25.707,25L168.859,122.1v10.274l-14.346,13.89h14.346v7.381H153.392L168.859,168.7V179l-15.55-15.152-23.791,24.24h39.341v7.382H129.2l23.392,23.41,15.9-16.713.367.349v9.973l-8.88,9.331,8.88,1.3v7.46l-8.144-1.189,8.144,12.152v13.154l-15.185-22.658L129.75,259.671h39.109v7.381h-41.54l25.707,25,15.834-15.331v10.275l-14.346,13.89h14.346v7.381H153.392l15.467,15.057v10.3l-15.55-15.152-23.791,24.24h39.341v7.381H129.2l23.392,23.41,15.9-16.713.367.349v9.973l-8.88,9.331,8.88,1.3v7.46Zm-36.53-32.706H84.334l13.642,29.86ZM97.639,85.2,85.222,105.049h27.933ZM97.977,70.6l18.147-29.86H84.334Zm-64,40.75,36-5.516L47.289,80.015,40.817,94.209l.274.115Zm23.753,42.289L76.9,182.549l13.13-28.906ZM90.4,146.262,77.483,117.054,58.011,146.262ZM55.45,223.083l35.993,5.709L77.3,197.836Zm-2.339,7,24.483,27.866L91.24,236.128Zm24.372,41.6L58.011,300.884H90.4Zm-19.755,36.59L76.9,337.171l13.13-28.906Zm-6.753,3.173-16.73,25.094,37.16,5.714Zm.016-13.331,20.25-30.374-36.666,5.619Zm18.985-37.648L47.289,234.636l-13.314,31.34ZM47.513,220.975l22.574-26.086-36.38-5.594Zm23.892-33.351-20.43-30.808L34.245,181.91ZM50.991,143.485l20.25-30.374L34.574,118.73Zm26.6-40.16L91.24,81.507,53.111,75.458Zm5.916,9.106,13.719,31.022,19.846-31.022ZM96.835,156.5,82.488,188.09h33.927Zm-12.5,38.967,13.642,29.86,18.147-29.86Zm13.3,44.346L85.222,259.671h27.933ZM83.509,267.052l13.719,31.022,19.846-31.022Zm13.325,44.074L82.488,342.711h33.927Zm-5.392,72.289L77.3,352.457,55.45,377.7Zm-21.356-33.9-36.38-5.595L47.513,375.6Zm-63.8,30.355L40.5,377.977l-13.029-29.9ZM27.669,333.09l16.55-24.825H6.417ZM6.549,300.884H43.976L27.586,276.169Zm20.783-38.156L40.148,232.5l-33.919.016ZM6.285,225.245l35.029-.017L27.47,193.459Zm21.383-46.777,16.55-24.825H6.417ZM6.549,146.262H43.976L27.586,121.548Zm20.783-38.156,3.909-9.356-.5-.229,9.409-20.638L6.229,77.9Zm.138-69.373L6.285,70.518,41.314,70.5ZM47.513,66.248,70.087,40.163l-36.38-5.6ZM51.968,1.976,35.082,27.311l36.7,5.644Zm3.482,66.38,35.993,5.709L77.3,43.109ZM96.835,1.778,82.488,33.363h33.927Zm25.657,42.7L104.477,74.122l40.861-6.78Zm23.8,30.187-42.057,6.979,17.087,21.864Zm-23.946,43.223-18.151,28.373h47.328Zm30.639,35.754H103.746l19.06,30.747Zm-30.492,45.562L104.477,228.85l40.861-6.781Zm23.8,30.082-42.057,6.979,17.087,21.865Zm-23.946,43.223-18.151,28.373h47.328Zm30.639,35.754H103.746l19.06,30.746Zm-30.492,45.562-18.015,29.644,40.861-6.78Z" transform="translate(392 0) rotate(90)" opacity="0.25" fill="url(#linear-gradient)"/>
</svg>